PathFileType	4	(X/Y/Z)	c:/Users/goper/Files/vsCode/490R/osim_files/A06/A06_SSWS_04.trc
DataRate	CameraRate	NumFrames	NumMarkers	Units                	OrigDataRate	OrigDataStartFrame	OrigNumFrames
120.00	120.00	10	36	mm	120.0	491	1307
                Frame#	Time	LPSIS			LASIS			LTH1			LTH2			LTH3			LTH4			LLFE			LMFE			LSH1			LSH2			LSH3			LSH4			LLMAL			LMMAL			LCAL			LMTP5			LTOE			LMTP1			RPSIS			RASIS			RTH1			RTH2			RTH3			RTH4			RLFE			RMFE			RSH1			RSH2			RSH3			RSH4			RLMAL			RMMAL			RCAL			RMTP1			RTOE			RMTP5		
		X1	Y1	Z1	X2	Y2	Z2	X3	Y3	Z3	X4	Y4	Z4	X5	Y5	Z5	X6	Y6	Z6	X7	Y7	Z7	X8	Y8	Z8	X9	Y9	Z9	X10	Y10	Z10	X11	Y11	Z11	X12	Y12	Z12	X13	Y13	Z13	X14	Y14	Z14	X15	Y15	Z15	X16	Y16	Z16	X17	Y17	Z17	X18	Y18	Z18	X19	Y19	Z19	X20	Y20	Z20	X21	Y21	Z21	X22	Y22	Z22	X23	Y23	Z23	X24	Y24	Z24	X25	Y25	Z25	X26	Y26	Z26	X27	Y27	Z27	X28	Y28	Z28	X29	Y29	Z29	X30	Y30	Z30	X31	Y31	Z31	X32	Y32	Z32	X33	Y33	Z33	X34	Y34	Z34	X35	Y35	Z35	X36	Y36	Z36

491	4.08333	142.12181	999.79095	345.47391	-42.36482	948.75403	421.21902	-63.49839	590.25256	453.52878	-84.34016	553.39191	448.02231	-123.76933	612.58405	445.20255	-133.37206	571.52655	440.24472	-125.91649	491.56873	433.85718	-128.72192	491.25519	320.96066	-33.45874	436.90814	446.08368	-16.35547	394.97690	452.64841	-86.33839	404.60934	435.49921	-62.28118	369.98434	439.15784	125.92548	183.61864	401.33063	103.05022	185.82736	318.80981	185.30394	213.51186	350.69495	62.30491	74.70869	414.33212	16.34009	74.19379	361.27121	38.23156	81.83159	322.77655	136.16243	1013.03119	214.94275	-39.38043	970.34186	162.55508	93.89643	596.13171	128.08406	88.30279	552.98871	128.51289	29.41913	594.71387	134.30565	34.63288	551.31390	130.86545	65.87966	438.89587	154.17372	59.25798	440.73709	243.91298	89.93938	283.56042	171.43411	90.08710	235.92924	174.33742	29.17058	278.14810	179.26674	36.81678	230.81079	176.65419	93.64696	102.18976	167.98149	76.29044	108.32222	248.94461	147.80722	85.32545	219.24210	-54.73775	55.63696	236.43007	-67.44263	66.35071	194.94618	-36.88937	51.41466	148.46841
492	4.09167	133.06004	1000.22778	345.14575	-51.20634	949.66827	420.76575	-76.55663	592.38232	454.50549	-97.98769	556.03210	448.89786	-136.58647	615.63409	445.69620	-147.06424	574.82770	440.65576	-140.98068	495.12732	433.95178	-143.11662	495.35568	320.83597	-50.36860	435.87860	445.96875	-34.02113	393.22516	451.43250	-104.19525	406.97629	435.60992	-82.12910	371.30463	439.06165	97.23803	176.14519	399.33307	73.98256	179.76027	317.01718	157.43932	202.52551	348.76617	27.93765	70.88066	413.03958	-18.48725	73.68417	360.63074	4.00636	79.44037	321.57001	126.86853	1013.39044	214.59528	-48.17772	971.07843	161.82397	87.56804	596.73645	127.86419	82.47502	553.56909	128.29065	24.58572	596.31555	133.04614	29.27409	551.94910	130.19431	61.47526	439.21188	154.00719	55.68573	441.74185	243.09933	87.07333	284.36560	171.41510	87.92434	236.57562	174.25528	27.09286	278.74542	178.38710	35.75437	231.66927	176.25859	93.74303	102.97465	167.48450	76.71820	109.04955	248.66826	148.09477	86.05400	219.07854	-54.68489	55.82739	236.17171	-67.86802	67.29895	194.25262	-36.80901	51.84528	148.08464
493	4.10000	123.97779	1000.45471	344.84924	-60.09085	949.44409	420.72855	-89.38491	594.15649	455.15649	-111.25655	558.41211	449.10202	-149.10176	617.89563	446.29016	-159.17061	576.99329	440.85596	-155.82388	497.88947	434.44519	-157.85280	497.94556	321.63721	-66.76604	434.65195	445.84030	-50.52414	391.85696	449.98660	-121.93801	408.68100	436.07391	-101.71055	371.74936	439.21967	67.79083	168.23100	398.06696	43.96709	173.21234	315.95755	128.73634	190.95688	346.53772	-7.02695	66.92260	412.55698	-53.66134	71.38711	360.11652	-32.46346	75.92455	321.91080	117.48377	1013.56555	214.32948	-57.53239	970.83484	162.01070	81.25114	597.28229	127.68894	76.72599	554.07324	128.12457	17.90451	595.82941	133.56451	23.25531	551.53949	130.49945	56.92852	439.44827	153.92094	51.05597	442.00827	243.36420	84.31181	284.93982	171.35347	85.36911	237.20284	174.18204	24.55373	279.09705	178.52509	33.27489	231.11897	176.60463	93.42803	103.39736	167.87762	76.88772	109.56583	248.53760	147.45354	85.92229	219.34325	-55.39428	55.34988	236.50983	-68.20634	66.55334	194.62726	-37.20134	51.23289	148.58916
494	4.10833	114.73170	1000.54773	344.59180	-69.31128	948.62469	420.38278	-102.05019	595.74200	455.85800	-124.60976	560.15167	449.73300	-161.29977	620.08331	447.01300	-172.87354	580.09009	442.54868	-170.31561	500.19443	434.85468	-172.20038	499.97769	322.54422	-82.91318	433.40723	445.70898	-70.27441	388.28018	449.95010	-140.00406	409.21759	436.29355	-121.02599	371.64566	438.33093	37.60194	160.85797	398.19122	13.27802	166.71082	315.03720	99.62117	180.21803	345.01620	-42.43504	63.58445	412.53220	-89.29326	69.81030	360.89697	-67.08425	73.06515	322.55078	108.06636	1013.65753	214.09135	-67.24081	970.09949	161.72588	74.76531	597.63379	127.58370	70.88718	554.52002	127.96216	10.55421	594.24811	133.80040	17.26011	551.03894	130.44344	52.45718	439.72162	153.83600	46.46525	442.13321	243.29559	81.58308	285.51663	171.28766	83.35542	237.74310	174.11781	22.13790	278.94812	177.97284	30.98328	230.95299	176.60806	93.08551	103.59636	167.92769	76.55809	109.67693	248.55276	147.22731	86.15475	219.37979	-55.00888	54.91330	236.54448	-68.40112	66.30494	194.61984	-37.36181	51.10179	148.65703
495	4.11667	105.64074	1000.61621	344.28714	-78.40573	948.31085	420.20044	-114.22288	597.00000	456.54346	-137.15091	561.96686	450.29349	-173.14941	622.31537	447.44492	-185.24635	582.38690	442.89655	-183.72665	502.61179	435.24738	-185.83664	502.12802	323.23135	-98.58546	431.94717	445.31073	-88.15698	386.23874	449.55713	-156.96576	410.56482	436.71368	-139.69414	372.12186	438.66968	7.35840	153.18237	397.06024	-18.11013	160.32729	314.18948	69.68655	168.72583	343.19159	-77.92014	60.89318	412.93939	-124.99247	69.55894	361.82288	-102.54307	70.38958	322.39978	98.73912	1013.70520	213.83896	-76.47311	969.74445	161.53482	68.44383	598.06763	127.48527	65.11369	554.87860	127.85908	5.15407	594.86279	133.30278	11.44516	550.82391	130.34555	47.97745	439.91400	153.74284	42.07635	442.32932	243.19397	78.83945	286.06335	171.21974	81.27473	238.25787	174.05821	19.17088	278.83234	178.51974	28.94963	230.96188	176.61015	92.84715	103.85864	167.91350	75.73212	109.45690	248.74188	147.19086	86.49663	219.33037	-55.27789	55.08487	236.21213	-68.62179	66.07153	194.67937	-37.48938	50.99302	148.71838
496	4.12500	96.48467	1000.54828	344.05280	-87.42027	947.83679	420.06094	-125.87582	597.82715	457.20416	-149.33957	563.50403	450.87482	-184.60704	624.12921	447.83081	-197.28850	584.34418	443.32315	-196.68173	504.68796	435.63913	-198.91794	503.91107	323.92038	-113.99050	430.15848	444.94733	-105.78378	384.00900	449.28165	-173.29709	411.77554	437.27951	-158.19737	372.42075	439.06464	-23.39509	145.78770	396.19431	-49.16852	154.34010	313.86981	39.13676	157.51161	341.37814	-113.52165	58.73067	413.63824	-160.63187	69.99756	363.19202	-138.72835	69.27867	323.43939	89.29494	1013.66046	213.61366	-86.84073	969.29474	161.88850	62.13080	598.41779	127.36793	59.27797	555.20392	127.78310	-1.15218	594.53247	133.27008	5.76210	550.56097	130.31245	43.58023	440.09683	153.64127	37.77330	442.44760	243.14580	76.12189	286.53979	171.19794	79.13205	238.76628	174.02020	16.83026	278.56256	178.02304	26.76748	230.90829	176.58197	92.61964	104.04118	167.93896	75.54929	109.60800	248.73889	146.84825	86.46718	219.43652	-55.40923	54.90417	236.24919	-68.83320	65.88584	194.71368	-37.60163	50.91109	148.75368
497	4.13333	87.07908	1000.26849	343.91495	-96.62849	947.19586	420.10342	-137.48505	598.80518	457.59863	-161.37746	564.70453	451.44186	-196.11610	625.68890	448.12842	-209.08601	586.05829	443.66248	-209.15590	506.31351	436.00577	-211.55347	505.38568	324.63629	-129.29086	427.90421	444.62622	-123.34776	381.76926	448.69608	-189.71461	412.66086	437.82135	-176.62883	372.55228	439.55991	-54.50887	138.84502	395.72763	-81.01540	148.64713	313.45145	7.71630	146.87660	339.96457	-149.24442	57.26924	414.70465	-196.32365	71.02866	364.90286	-174.62332	69.54684	324.52625	79.79065	1013.46661	213.42691	-95.16694	968.63702	161.39751	55.85616	598.73511	127.33939	53.54485	555.52563	127.75542	-7.10433	593.74420	132.92099	-0.00724	550.24158	130.28444	39.05800	440.21750	153.63040	32.96640	442.18518	243.21678	73.36535	287.02676	171.19534	76.95996	239.41354	174.06418	14.05021	278.44916	178.52493	24.71855	230.92815	176.57204	92.30642	104.24950	167.93149	74.97085	109.47070	248.85895	146.62875	86.70941	219.44214	-55.33028	54.89651	236.28441	-69.07394	65.58268	194.82155	-37.76004	50.81371	148.78609
498	4.14167	77.77010	999.94659	343.73260	-105.84583	946.42206	420.14310	-149.95876	598.18219	458.36441	-172.64862	565.58179	451.87299	-207.05522	626.79462	448.29156	-220.27873	587.27179	443.93985	-221.10779	507.64987	436.32306	-223.51672	506.39676	325.19992	-144.28444	425.24249	444.36014	-140.73686	378.88599	448.48737	-205.70006	413.21524	438.38300	-194.45755	372.50281	440.08963	-85.75338	132.41359	395.56125	-112.67065	143.44527	313.61023	-23.33950	137.30832	338.83249	-184.72827	56.57927	416.09091	-231.62447	72.79859	366.81406	-211.63026	70.58952	326.26743	70.29007	1013.27277	213.35184	-104.76200	967.88855	161.49509	49.53645	599.01501	127.31721	47.67481	555.80670	127.68826	-13.31306	593.63708	133.03265	-5.74614	549.86456	130.30315	34.61256	440.33002	153.61110	28.80404	442.54871	243.08595	70.63269	287.58270	171.12181	74.83788	239.82268	173.99199	11.59407	278.17664	178.05411	22.58669	230.83783	176.57063	92.11803	104.48830	167.92807	74.77729	109.67830	248.87088	146.77644	87.30076	219.27449	-55.95201	54.95488	236.19057	-69.20606	65.41789	194.83621	-37.83829	50.76857	148.81274
499	4.15000	68.84740	999.86273	343.51428	-115.17850	945.48010	420.35599	-159.30682	599.81232	458.48853	-183.65025	565.93848	452.23709	-217.45883	627.24634	448.49854	-231.00081	587.79572	443.94577	-232.54190	508.32419	436.59222	-235.00018	507.01352	325.81232	-159.21947	422.19278	444.15106	-158.24338	375.61682	448.44193	-220.99118	413.66599	439.03604	-212.46324	372.27887	440.70410	-117.34656	126.50665	395.75662	-144.44402	138.82716	314.01105	-55.65332	127.39504	338.51825	-220.21941	56.55389	417.68246	-267.17596	75.97378	368.04721	-246.97687	71.76595	327.80127	60.68421	1012.90137	213.33295	-114.28917	967.03143	161.68944	43.24555	599.27710	127.33768	41.88975	556.05914	127.70927	-19.63041	593.13647	133.06566	-11.52380	549.49976	130.31369	30.07023	440.35425	153.63866	24.38455	442.55719	243.09740	67.89454	288.08734	171.13597	72.73075	240.39433	173.98064	8.66790	278.10080	178.52588	20.38523	230.82599	176.56020	91.84608	104.71027	167.93912	73.71563	109.04828	248.96324	146.33612	87.22704	219.42033	-55.63627	54.62298	236.36861	-69.35264	65.24178	194.89253	-37.96562	50.69420	148.85347
500	4.15833	59.28272	999.23303	343.54318	-124.79044	944.49908	420.63525	-169.90578	599.55151	458.89438	-194.20076	565.88263	452.61502	-227.72774	627.31970	448.59784	-241.47256	587.98004	444.23593	-243.46603	508.54871	436.74094	-246.01068	507.10867	326.24051	-174.20857	418.77414	444.14423	-175.83076	372.23419	448.55182	-236.38422	413.62195	439.40347	-230.09140	371.83484	441.28055	-149.33167	121.18026	396.29504	-176.19550	134.88861	314.67023	-88.05467	118.44553	338.49271	-255.82199	57.32852	419.44571	-301.95703	79.15984	370.23129	-282.49936	73.94571	330.01099	50.94049	1012.41357	213.43037	-123.78227	966.09845	161.90010	36.87517	599.46155	127.36116	35.96553	556.23010	127.72276	-25.85107	592.60272	133.09082	-17.33319	549.06903	130.34599	25.60496	440.45142	153.64839	19.67393	442.38797	243.15358	65.17023	288.54642	171.13885	70.23647	241.05325	174.06140	6.02174	277.92831	178.56352	18.37444	230.82089	176.58443	91.51351	104.88583	167.96698	73.38908	109.12180	249.01791	146.04900	87.38732	219.46422	-55.81622	54.43716	236.43079	-69.54643	65.01704	194.98538	-38.05014	50.63887	148.89084
